<svg width="168" height="168" viewBox="0 0 168 168" fill="none" xmlns="http://www.w3.org/2000/svg">
<g filter="url(#filter0_i_10_4)">
<rect x="22" y="22" width="124" height="124" rx="17" stroke="#FAAD16" stroke-width="6" stroke-linejoin="round"/>
<mask id="path-2-inside-1_10_4" fill="white">
<rect x="38" y="37" width="92" height="92" rx="4"/>
</mask>
<rect x="38" y="37" width="92" height="92" rx="4" stroke="#FAAD16" stroke-width="12" stroke-linejoin="round" mask="url(#path-2-inside-1_10_4)"/>
<path d="M87 3C87 1.34315 85.6569 -2.38419e-07 84 -2.38419e-07C82.3431 -2.38419e-07 81 1.34315 81 3H87ZM87 19V3H81V19H87Z" fill="#FAAE16"/>
<path d="M123 3C123 1.34315 121.657 -2.38419e-07 120 -2.38419e-07C118.343 -2.38419e-07 117 1.34315 117 3H123ZM123 19V3H117V19H123Z" fill="#FAAE16"/>
<path d="M105 3C105 1.34315 103.657 -2.38419e-07 102 -2.38419e-07C100.343 -2.38419e-07 99 1.34315 99 3H105ZM105 19V3H99V19H105Z" fill="#FAAE16"/>
<path d="M69 3C69 1.34315 67.6569 -2.38419e-07 66 -2.38419e-07C64.3431 -2.38419e-07 63 1.34315 63 3H69ZM69 19V3H63V19H69Z" fill="#FAAE16"/>
<path d="M51 3C51 1.34315 49.6569 -2.38419e-07 48 -2.38419e-07C46.3431 -2.38419e-07 45 1.34315 45 3H51ZM51 19V3H45V19H51Z" fill="#FAAE16"/>
<path d="M3 80C1.34315 80 -2.38419e-07 81.3431 -2.38419e-07 83C-2.38419e-07 84.6569 1.34315 86 3 86V80ZM19 80H3V86H19V80Z" fill="#FAAE16"/>
<path d="M3 44C1.34315 44 -2.38419e-07 45.3431 -2.38419e-07 47C-2.38419e-07 48.6569 1.34315 50 3 50V44ZM19 44H3V50H19V44Z" fill="#FAAE16"/>
<path d="M3 62C1.34315 62 -2.38419e-07 63.3431 -2.38419e-07 65C-2.38419e-07 66.6569 1.34315 68 3 68V62ZM19 62H3V68H19V62Z" fill="#FAAE16"/>
<path d="M3 98C1.34315 98 -2.38419e-07 99.3431 -2.38419e-07 101C-2.38419e-07 102.657 1.34315 104 3 104V98ZM19 98H3V104H19V98Z" fill="#FAAE16"/>
<path d="M3 116C1.34315 116 -2.38419e-07 117.343 -2.38419e-07 119C-2.38419e-07 120.657 1.34315 122 3 122V116ZM19 116H3V122H19V116Z" fill="#FAAE16"/>
<path d="M81 165C81 166.657 82.3431 168 84 168C85.6569 168 87 166.657 87 165H81ZM81 149V165H87V149H81Z" fill="#FAAE16"/>
<path d="M45 165C45 166.657 46.3431 168 48 168C49.6569 168 51 166.657 51 165H45ZM45 149V165H51V149H45Z" fill="#FAAE16"/>
<path d="M63 165C63 166.657 64.3431 168 66 168C67.6569 168 69 166.657 69 165H63ZM63 149V165H69V149H63Z" fill="#FAAE16"/>
<path d="M99 165C99 166.657 100.343 168 102 168C103.657 168 105 166.657 105 165H99ZM99 149V165H105V149H99Z" fill="#FAAE16"/>
<path d="M117 165C117 166.657 118.343 168 120 168C121.657 168 123 166.657 123 165H117ZM117 149V165H123V149H117Z" fill="#FAAE16"/>
<path d="M165 86C166.657 86 168 84.6569 168 83C168 81.3431 166.657 80 165 80V86ZM149 86H165V80H149V86Z" fill="#FAAE16"/>
<path d="M165 122C166.657 122 168 120.657 168 119C168 117.343 166.657 116 165 116V122ZM149 122H165V116H149V122Z" fill="#FAAE16"/>
<path d="M165 104C166.657 104 168 102.657 168 101C168 99.3431 166.657 98 165 98V104ZM149 104H165V98H149V104Z" fill="#FAAE16"/>
<path d="M165 68C166.657 68 168 66.6569 168 65C168 63.3431 166.657 62 165 62V68ZM149 68H165V62H149V68Z" fill="#FAAE16"/>
<path d="M165 50C166.657 50 168 48.6569 168 47C168 45.3431 166.657 44 165 44V50ZM149 50H165V44H149V50Z" fill="#FAAE16"/>
</g>
<defs>
<filter id="filter0_i_10_4" x="0" y="0" width="168" height="172" filterUnits="userSpaceOnUse" color-interpolation-filters="sRGB">
<feFlood flood-opacity="0" result="BackgroundImageFix"/>
<feBlend mode="normal" in="SourceGraphic" in2="BackgroundImageFix" result="shape"/>
<feColorMatrix in="SourceAlpha" type="matrix" values="0 0 0 0 0 0 0 0 0 0 0 0 0 0 0 0 0 0 127 0" result="hardAlpha"/>
<feOffset dy="4"/>
<feGaussianBlur stdDeviation="2"/>
<feComposite in2="hardAlpha" operator="arithmetic" k2="-1" k3="1"/>
<feColorMatrix type="matrix" values="0 0 0 0 0 0 0 0 0 0 0 0 0 0 0 0 0 0 0.25 0"/>
<feBlend mode="normal" in2="shape" result="effect1_innerShadow_10_4"/>
</filter>
</defs>
</svg>
