<svg width="233" height="39" viewBox="0 0 233 39" fill="none" xmlns="http://www.w3.org/2000/svg">
<g filter="url(#filter0_d_10_3)">
<path d="M4 32V11.56H10V13.44C10.3067 12.8133 10.8533 12.2667 11.64 11.8C12.4267 11.32 13.1867 11.08 13.92 11.08C15.5067 11.08 16.84 11.68 17.92 12.88L17.12 18.32C16.5067 17.7733 15.92 17.3933 15.36 17.18C14.8133 16.9533 14.2 16.84 13.52 16.84C12.76 16.84 12.12 17 11.6 17.32C11.08 17.64 10.68 18.1133 10.4 18.74C10.1333 19.3667 10 20.1333 10 21.04V32H4ZM23.2275 32V11.56H29.2275V32H23.2275ZM26.2275 9.76C25.2942 9.76 24.4875 9.42 23.8075 8.74C23.1275 8.06 22.7875 7.25333 22.7875 6.32C22.7875 5.4 23.1208 4.61333 23.7875 3.96C24.4542 3.29333 25.2675 2.96 26.2275 2.96C27.2142 2.96 28.0342 3.28667 28.6875 3.94C29.3408 4.58 29.6675 5.37333 29.6675 6.32C29.6675 7.28 29.3342 8.09333 28.6675 8.76C28.0008 9.42666 27.1875 9.76 26.2275 9.76ZM36.4578 32V27.4L46.8178 16.92H37.1778V11.56H54.6178V16.04L44.3378 26.64H54.5778V32H36.4578ZM61.2313 32V27.4L71.5913 16.92H61.9513V11.56H79.3913V16.04L69.1113 26.64H79.3513V32H61.2313ZM94.9331 32.48C91.9998 32.48 89.6865 31.5333 87.9931 29.64C86.2998 27.7333 85.4531 25.12 85.4531 21.8C85.4531 19.6133 85.8398 17.72 86.6131 16.12C87.3865 14.5067 88.4798 13.2667 89.8931 12.4C91.3198 11.52 92.9998 11.08 94.9331 11.08C96.8531 11.08 98.5131 11.52 99.9131 12.4C101.326 13.2667 102.413 14.5 103.173 16.1C103.946 17.7 104.333 19.6 104.333 21.8C104.333 24.0133 103.953 25.92 103.193 27.52C102.446 29.1067 101.366 30.3333 99.9531 31.2C98.5531 32.0533 96.8798 32.48 94.9331 32.48ZM94.9331 26.68C96.0398 26.68 96.8865 26.26 97.4731 25.42C98.0731 24.5667 98.3731 23.36 98.3731 21.8C98.3731 20.24 98.0665 19.0333 97.4531 18.18C96.8531 17.3133 96.0131 16.88 94.9331 16.88C93.8531 16.88 92.9998 17.32 92.3731 18.2C91.7598 19.08 91.4531 20.28 91.4531 21.8C91.4531 23.32 91.7598 24.5133 92.3731 25.38C92.9998 26.2467 93.8531 26.68 94.9331 26.68ZM117.112 32.48C115.339 32.48 114.019 32.0133 113.152 31.08C112.299 30.1467 111.872 28.7333 111.872 26.84V16.84H109.112V11.56H111.872V5.96L117.832 3.12V11.56H122.192V16.84H117.832V26.12C117.832 26.52 117.932 26.8267 118.132 27.04C118.346 27.2533 118.666 27.36 119.092 27.36C120.119 27.36 121.246 27.0933 122.472 26.56L121.792 31.56C121.152 31.8533 120.446 32.08 119.672 32.24C118.912 32.4 118.059 32.48 117.112 32.48ZM127.484 32V11.56H133.484V13.44C133.791 12.8133 134.338 12.2667 135.124 11.8C135.911 11.32 136.671 11.08 137.404 11.08C138.991 11.08 140.324 11.68 141.404 12.88L140.604 18.32C139.991 17.7733 139.404 17.3933 138.844 17.18C138.298 16.9533 137.684 16.84 137.004 16.84C136.244 16.84 135.604 17 135.084 17.32C134.564 17.64 134.164 18.1133 133.884 18.74C133.618 19.3667 133.484 20.1333 133.484 21.04V32H127.484ZM154.293 32.48C151.359 32.48 149.046 31.5333 147.353 29.64C145.659 27.7333 144.813 25.12 144.813 21.8C144.813 19.6133 145.199 17.72 145.973 16.12C146.746 14.5067 147.839 13.2667 149.253 12.4C150.679 11.52 152.359 11.08 154.293 11.08C156.213 11.08 157.873 11.52 159.273 12.4C160.686 13.2667 161.773 14.5 162.533 16.1C163.306 17.7 163.693 19.6 163.693 21.8C163.693 24.0133 163.313 25.92 162.553 27.52C161.806 29.1067 160.726 30.3333 159.313 31.2C157.913 32.0533 156.239 32.48 154.293 32.48ZM154.293 26.68C155.399 26.68 156.246 26.26 156.833 25.42C157.433 24.5667 157.733 23.36 157.733 21.8C157.733 20.24 157.426 19.0333 156.813 18.18C156.213 17.3133 155.373 16.88 154.293 16.88C153.213 16.88 152.359 17.32 151.733 18.2C151.119 19.08 150.813 20.28 150.813 21.8C150.813 23.32 151.119 24.5133 151.733 25.38C152.359 26.2467 153.213 26.68 154.293 26.68ZM170.195 32V11.56H176.195V13.44C176.862 12.6533 177.662 12.0667 178.595 11.68C179.529 11.28 180.595 11.08 181.795 11.08C183.955 11.08 185.669 11.7533 186.935 13.1C188.202 14.4467 188.835 16.28 188.835 18.6V32H182.835V21.56C182.835 19.8533 182.595 18.6467 182.115 17.94C181.649 17.2333 180.835 16.88 179.675 16.88C178.462 16.88 177.575 17.2467 177.015 17.98C176.469 18.7133 176.195 19.88 176.195 21.48V32H170.195ZM196.688 32V11.56H202.688V32H196.688ZM199.688 9.76C198.755 9.76 197.948 9.42 197.268 8.74C196.588 8.06 196.248 7.25333 196.248 6.32C196.248 5.4 196.582 4.61333 197.248 3.96C197.915 3.29333 198.728 2.96 199.688 2.96C200.675 2.96 201.495 3.28667 202.148 3.94C202.802 4.58 203.128 5.37333 203.128 6.32C203.128 7.28 202.795 8.09333 202.128 8.76C201.462 9.42666 200.648 9.76 199.688 9.76ZM219.359 32.48C217.385 32.48 215.679 32.0467 214.239 31.18C212.799 30.3133 211.685 29.08 210.899 27.48C210.112 25.88 209.719 23.9867 209.719 21.8C209.719 19.6267 210.112 17.74 210.899 16.14C211.699 14.5267 212.819 13.28 214.259 12.4C215.712 11.52 217.412 11.08 219.359 11.08C221.705 11.08 223.639 11.6267 225.159 12.72C226.692 13.8133 227.799 15.44 228.479 17.6L222.759 19.48C222.439 18.64 221.992 17.9933 221.419 17.54C220.845 17.0733 220.185 16.84 219.439 16.84C218.385 16.84 217.512 17.3067 216.819 18.24C216.139 19.1733 215.799 20.36 215.799 21.8C215.799 23.24 216.132 24.42 216.799 25.34C217.465 26.26 218.319 26.72 219.359 26.72C220.159 26.72 220.845 26.48 221.419 26C221.992 25.5067 222.439 24.7733 222.759 23.8L228.479 25.44C227.799 27.8 226.699 29.5667 225.179 30.74C223.659 31.9 221.719 32.48 219.359 32.48Z" fill="#FFFFFF"/>
</g>
<defs>
<filter id="filter0_d_10_3" x="0" y="0.959999" width="232.479" height="37.52" filterUnits="userSpaceOnUse" color-interpolation-filters="sRGB">
<feFlood flood-opacity="0" result="BackgroundImageFix"/>
<feColorMatrix in="SourceAlpha" type="matrix" values="0 0 0 0 0 0 0 0 0 0 0 0 0 0 0 0 0 0 127 0" result="hardAlpha"/>
<feOffset dy="2"/>
<feGaussianBlur stdDeviation="2"/>
<feComposite in2="hardAlpha" operator="out"/>
<feColorMatrix type="matrix" values="0 0 0 0 0 0 0 0 0 0 0 0 0 0 0 0 0 0 0.25 0"/>
<feBlend mode="normal" in2="BackgroundImageFix" result="effect1_dropShadow_10_3"/>
<feBlend mode="normal" in="SourceGraphic" in2="effect1_dropShadow_10_3" result="shape"/>
</filter>
</defs>
</svg>
